<svg xmlns="http://www.w3.org/2000/svg" viewBox="0 0 1440 1800" fill="none">
  <g stroke="#a8bb91" stroke-width="1.15" opacity="0.36">
    <path d="M865 72C1056 2 1320 57 1418 214C1512 365 1373 526 1169 522C984 519 803 414 783 272C771 185 801 96 865 72Z"/>
    <path d="M902 112C1062 53 1278 89 1364 218C1448 344 1330 476 1162 476C1005 476 851 390 832 274C819 198 846 133 902 112Z"/>
    <path d="M942 153C1074 105 1249 130 1318 225C1387 321 1294 425 1157 428C1025 432 902 362 885 275C872 213 896 170 942 153Z"/>
    <path d="M987 194C1089 158 1221 173 1271 235C1321 298 1252 371 1150 377C1050 383 955 334 941 275C930 234 950 207 987 194Z"/>

    <path d="M-104 588C62 474 312 459 470 562C620 660 592 827 421 902C267 969 37 929-78 811C-147 740-164 629-104 588Z"/>
    <path d="M-52 617C81 524 282 514 410 593C533 670 510 799 374 858C250 912 67 881-26 789C-83 733-99 651-52 617Z"/>
    <path d="M3 649C107 576 260 568 356 625C450 681 433 775 329 818C235 857 98 833 28 766C-15 725-28 675 3 649Z"/>
    <path d="M62 681C137 628 239 623 303 658C367 693 355 751 285 779C222 804 132 788 86 748C58 724 48 692 62 681Z"/>

    <path d="M855 1070C1025 953 1294 976 1411 1125C1521 1265 1404 1434 1209 1450C1030 1465 824 1360 790 1219C769 1131 800 1108 855 1070Z"/>
    <path d="M900 1105C1038 1014 1253 1032 1348 1146C1439 1256 1341 1385 1192 1398C1048 1411 882 1328 855 1217C838 1149 858 1133 900 1105Z"/>
    <path d="M950 1141C1056 1073 1214 1085 1283 1167C1350 1246 1278 1337 1172 1347C1064 1357 943 1297 923 1216C911 1168 923 1158 950 1141Z"/>
    <path d="M1004 1179C1076 1134 1179 1142 1223 1191C1267 1241 1221 1294 1154 1301C1082 1308 1003 1270 990 1216C982 1189 991 1187 1004 1179Z"/>
  </g>

  <g stroke="#a8bb91" stroke-width="1.5" opacity="0.48">
    <path d="M720 0C710 160 410 270 445 465C478 646 820 620 790 835C763 1026 510 1108 615 1304C707 1476 930 1560 720 1800"/>
    <circle cx="445" cy="465" r="5" fill="#a8bb91" fill-opacity="0.7"/>
    <circle cx="790" cy="835" r="5" fill="#a8bb91" fill-opacity="0.7"/>
    <circle cx="615" cy="1304" r="5" fill="#a8bb91" fill-opacity="0.7"/>
  </g>

  <g transform="translate(1125 760)" stroke="#a8bb91" opacity="0.5">
    <circle r="72" stroke-width="1.2"/>
    <circle r="55" stroke-width="0.8" opacity="0.55"/>
    <path d="M0-88V-66M0 66V88M-88 0H-66M66 0H88" stroke-width="1.2"/>
    <path d="M0-48L8-8L0 0L-8-8L0-48Z" fill="#a8bb91" fill-opacity="0.42" stroke-width="1"/>
    <path d="M0 48L-6 8L0 0L6 8L0 48Z" stroke-width="1" opacity="0.65"/>
    <circle r="4" fill="#a8bb91" fill-opacity="0.75" stroke="none"/>
  </g>
</svg>
